<svg id="svg4" class="svg-inline--fa fa-space-shuttle fa-w-20 fa-3x" width="18" height="18" aria-hidden="true" data-icon="space-shuttle" data-prefix="fal" role="img" version="1.1" viewBox="0 0 18 18" xmlns="http://www.w3.org/2000/svg">
<path id="path2" class="" d="m6.5252 5.3995c0 6.7494-3.8246 5.8494-3.8246 9.899v.45004c0 .74553.80582 1.3499 1.7998 1.3499h1.7998v.8974c1.7998.004 3.5997.007 5.3995-.00017v-.89723h1.7998c.99401 0 1.7998-.60434 1.7998-1.3499v-.45004c0-4.0495-3.8246-3.1496-3.8246-9.899 0-2.9821-1.108-5.3995-2.4748-5.3995s-2.4748 2.4174-2.4748 5.3995zm0 4.2746v3.642l-.22498 1.5325h-2.6997c0-1.6807 2.3881-3.0279 2.9247-5.1745zm-2.0248 6.5244c-.55826 0-.89992-.29132-.89992-.44996v-.44996h2.6997v.89992zm8.9991 0h-1.7998v-.89992h2.6997v.44996c0 .15864-.34166.44996-.89992.44996zm.89992-1.3499h-2.7001l-.22467-1.5134v-3.6611c.53666 2.1465 2.9248 3.4848 2.9248 5.1745zm-6.9743-2.6434v-6.8057c-.021959-1.8094.15634-4.5169 1.5748-4.5752 1.5914-.065364 1.5585 3.0119 1.5749 4.5752v6.8118l-.0049.93484.22989 1.2794v2.7527h-1.3499v-2.3296c0-.49701-.20144-.89992-.44996-.89992s-.44996.40291-.44996.89992v2.3296h-1.3499v-2.7796l.24566-1.2805zm2.6997-7.931c0 .12447-.10074.22537-.22498.22537l-.22498-.0569-.22498-.14733-.22498-.0603h-.44996l-.22498.0603-.22498.14733-.22498.0569c-.12045.0304-.22498-.1009-.22498-.22537 0-.89986 2.2498-.89893 2.2498 0z" fill="currentColor" stroke-width=".028122"/>
</svg>
