<svg width="1920" height="400" version="1.1" xmlns="http://www.w3.org/2000/svg">
<defs>
<clipPath id="clipPath1856">
<path d="m1e-6 5e-6h1920v400h-1920z" fill="#ffab5d"/>
</clipPath>
</defs>
<g clip-path="url(#clipPath1856)" stroke-width="1.0671">
<g>
<path d="m1977.2 420.85 62.778-105.14-232.01 14.185z" fill="#83c270" stroke="#cfd875"/>
<path d="m1977.2 420.85-169.23-90.952-55.954 91.786z" fill="#8ad076" stroke="#dde57d"/>
<path d="m1752 421.68 55.954-91.786-186.97-34.211z" fill="#a0e17d" stroke="#cce783"/>
</g>
<path d="m1752 421.68-131.02-126-113.27 188.58z" fill="#dbf285" stroke="#dbf285"/>
<path d="m1507.7 484.26 113.27-188.58-252.48 80.104z" fill="#cef284" stroke="#cef284"/>
<path d="m1507.7 484.26-139.2-108.47 39.578 96.793z" fill="#ddf78d" stroke="#ddf78d"/>
<path d="m1408.1 472.58-39.578-96.793-171.96 86.78z" fill="#d3f587" stroke="#d3f587"/>
<path d="m1196.6 462.57 171.96-86.78-174.69-51.734z" fill="#bdf07d" stroke="#bdf07d"/>
<path d="m1196.6 462.57-2.7295-138.51-161.04 146.86z" fill="#c0ee7b" stroke="#c0ee7b"/>
<path d="m1032.8 470.91 161.04-146.86-236.1-13.351z" fill="#a7e673" stroke="#a7e673"/>
<path d="m1032.8 470.91-75.061-160.21-152.85 161.88z" fill="#ace676" stroke="#ace676"/>
<path d="m804.89 472.58 152.85-161.88-163.77 13.351z" fill="#93dd70" stroke="#93dd70"/>
<path d="m804.89 472.58-10.918-148.53-229.28 117.65z" fill="#96dd72" stroke="#96dd72"/>
<path d="m564.7 441.71 229.28-117.65-297.51 55.072z" fill="#7ed36c" stroke="#7ed36c"/>
<path d="m564.7 441.71-68.237-62.582-80.52 70.926z" fill="#7ed06d" stroke="#7ed06d"/>
<path d="m415.94 450.05 80.52-70.926-85.979-75.932z" fill="#68c967" stroke="#68c967"/>
<path d="m415.94 450.05-5.459-146.86-221.09 148.53z" fill="#66c765" stroke="#66c765"/>
<path d="m189.4 451.72 221.09-148.53-296.15-.83442z" fill="#4fb960" stroke="#4fb960"/>
<path d="m189.4 451.72-75.061-149.36-105.09 109.31z" fill="#5db75e" stroke="#5db75e"/>
<path d="m9.2507 411.67 105.09-109.31-96.897-5.0065z" fill="#49ad5a" stroke="#49ad5a"/>
<path d="m9.2507 411.67 8.1884-114.32-68.237-217.78 29.939 334.79z" fill="#2a9b52" stroke="#2a9b52"/>
<g>
<path d="m2040 315.71-23.201-147.69-271.58 69.257z" fill="#83c270" stroke="#9fc36c"/>
<path d="m2040 315.71-294.78-78.436 62.778 92.621z" fill="#9cd379" stroke="#b7d477"/>
<path d="m1808 329.9-62.778-92.621-124.19 58.409z" fill="#8ad076" stroke="#b3dd7f"/>
</g>
<path d="m1621 295.69 124.19-58.409-75.061-52.568z" fill="#9cd379" stroke="#9cd379"/>
<path d="m1621 295.69 49.131-110.98-283.87-24.198z" fill="#8ad076" stroke="#8ad076"/>
<path d="m1621 295.69-234.74-135.18-17.742 215.28z" fill="#a0e17d" stroke="#a0e17d"/>
<path d="m1368.5 375.79 17.742-215.28-158.31 54.237z" fill="#8bd976" stroke="#8bd976"/>
<path d="m1368.5 375.79-140.57-161.04-34.118 109.31z" fill="#9ee47a" stroke="#9ee47a"/>
<path d="m1193.8 324.06 34.118-109.31-218.36-29.205z" fill="#79d16c" stroke="#79d16c"/>
<path d="m1193.8 324.06-184.24-138.51-51.86 125.16z" fill="#80d56c" stroke="#80d56c"/>
<path d="m957.75 310.71 51.86-125.16h-188.33z" fill="#5fc566" stroke="#5fc566"/>
<path d="m957.75 310.71-136.47-125.16-27.295 138.51z" fill="#6ccc6a" stroke="#6ccc6a"/>
<path d="m793.98 324.06 27.295-138.51-337.09 5.8409z" fill="#4bbc63" stroke="#4bbc63"/>
<path d="m793.98 324.06-309.8-132.67 12.283 187.74z" fill="#5ac567" stroke="#5ac567"/>
<path d="m496.46 379.13-12.283-187.74-73.696 111.81z" fill="#48bc63" stroke="#48bc63"/>
<path d="m410.48 303.2 73.696-111.81-189.7-5.0065z" fill="#24aa5a" stroke="#24aa5a"/>
<path d="m410.48 303.2-116-116.82-180.15 115.98z" fill="#2aab5a" stroke="#2aab5a"/>
<path d="m114.34 302.36 180.15-115.98-116 10.013z" fill="#1b9f54" stroke="#1b9f54"/>
<path d="m114.34 302.36 64.143-105.97-163.77.83443z" fill="#1c9a52" stroke="#1c9a52"/>
<path d="m114.34 302.36-99.626-105.14 2.7295 100.13z" fill="#2b9f54" stroke="#2b9f54"/>
<path d="m17.439 297.35-2.7295-100.13-65.508-117.65z" fill="#0b8b49" stroke="#0b8b49"/>
<path d="m2016.8 168.02-2.7295-67.588-156.95 5.8409z" fill="#6dab5d" stroke="#7fa75d"/>
<path d="m2016.8 168.02-159.67-61.747-111.91 131z" fill="#80b768" stroke="#80b768"/>
<path d="m1745.2 237.28 111.91-131-186.97 78.436z" fill="#83c270" stroke="#83c270"/>
<path d="m1670.1 184.71 186.97-78.436-227.91-38.383z" fill="#7fb76b" stroke="#7fb76b"/>
<path d="m1670.1 184.71-40.942-116.82-182.88 31.708z" fill="#77ba6b" stroke="#77ba6b"/>
<path d="m1670.1 184.71-223.82-85.111-60.049 60.913z" fill="#72c36e" stroke="#72c36e"/>
<path d="m1386.3 160.51 60.049-60.913-311.16-5.0065z" fill="#66bc67" stroke="#66bc67"/>
<path d="m1386.3 160.51-251.11-65.919 92.802 120.16z" fill="#61c267" stroke="#61c267"/>
<path d="m1228 214.75-92.802-120.16-125.56 90.952z" fill="#57bf62" stroke="#57bf62"/>
<path d="m1009.6 185.54 125.56-90.952-192.43 32.542z" fill="#4fb55c" stroke="#4fb55c"/>
<path d="m1009.6 185.54-66.872-58.409-121.46 58.409z" fill="#44b75e" stroke="#44b75e"/>
<path d="m821.27 185.54 121.46-58.409-238.83-90.952z" fill="#3aa858" stroke="#3aa858"/>
<path d="m821.27 185.54-117.37-149.36-70.967 37.549z" fill="#309f53" stroke="#309f53"/>
<path d="m821.27 185.54-188.33-111.81-148.76 117.65z" fill="#27a658" stroke="#27a658"/>
<path d="m484.18 191.38 148.76-117.65-201.98 5.8409z" fill="#18974f" stroke="#18974f"/>
<path d="m484.18 191.38-53.225-111.81-136.47 106.81z" fill="#0b9951" stroke="#0b9951"/>
<path d="m294.48 186.38 136.47-106.81-350.74-46.728z" fill="#008647" stroke="#008647"/>
<path d="m294.48 186.38-214.26-153.53 98.261 163.55z" fill="#008a49" stroke="#008a49"/>
<path d="m178.48 196.39-98.261-163.55-65.508 164.38z" fill="#008647" stroke="#008647"/>
<path d="m14.71 197.22 65.508-164.38-131.02 46.728z" fill="#007840" stroke="#007840"/>
<g>
<path d="m2014.1 100.43-31.389-127.67-125.56 133.51z" fill="#74a556" stroke="#7f9956"/>
<path d="m1857.1 106.27 125.56-133.51h-151.49z" fill="#619b55" stroke="#7f9455"/>
<path d="m1857.1 106.27-25.93-133.51-201.98 95.124z" fill="#68b860" stroke="#7fa460"/>
<path d="m1629.2 67.889 201.98-95.124-296.15-23.364z" fill="#6da65d" stroke="#7b9d5d"/>
<path d="m1629.2 67.889-94.167-118.49-88.708 150.2z" fill="#68b261" stroke="#74a961"/>
<path d="m1446.3 99.597 88.708-150.2-166.5 2.5033z" fill="#66a95d" stroke="#6fa35d"/>
</g>
<path d="m1446.3 99.597-77.79-147.69-233.37 142.69z" fill="#66ac5e" stroke="#66ac5e"/>
<path d="m1135.2 94.59 233.37-142.69-249.75 36.715z" fill="#5da054" stroke="#5da054"/>
<path d="m1135.2 94.59-16.377-105.97-176.05 138.51z" fill="#52a855" stroke="#52a855"/>
<path d="m942.73 127.13 176.05-138.51-182.88-24.198z" fill="#4c9b4f" stroke="#4c9b4f"/>
<path d="m942.73 127.13-6.8237-162.71-232.01 71.76z" fill="#3e994f" stroke="#3e994f"/>
<path d="m703.9 36.181 232.01-71.76-116-53.403z" fill="#3a8746" stroke="#3a8746"/>
<path d="m703.9 36.181 116-125.16-262.03 81.773z" fill="#2d8345" stroke="#2d8345"/>
<path d="m703.9 36.181-146.03-43.39 75.061 80.939z" fill="#268c49" stroke="#268c49"/>
<path d="m632.94 73.73-75.061-80.939-126.92 86.78z" fill="#1b8a49" stroke="#1b8a49"/>
<path d="m430.96 79.571 126.92-86.78-120.1-30.874z" fill="#147e42" stroke="#147e42"/>
<path d="m430.96 79.571 6.8237-117.65-357.56 70.926z" fill="#01783f" stroke="#01783f"/>
<path d="m80.217 32.843 357.56-70.926-272.95-45.059z" fill="#006736" stroke="#006736"/>
<path d="m80.217 32.843 84.614-115.98-226.55 80.939z" fill="#006033" stroke="#006033"/>
<path d="m80.217 32.843-141.93-35.046 10.918 81.773z" fill="#006837" stroke="#006837"/>
<path d="m1535-50.599-715.12-38.383 548.63 40.887z" fill="#60904e" stroke="#60904e"/>
<path d="m1368.5-48.096-548.63-40.887 298.88 77.601z" fill="#559448" stroke="#558f48"/>
<path d="m1118.8-11.381-298.88-77.601 116 53.403z" fill="#488a46" stroke="#488a46"/>
<path d="m819.91-88.982-655.08 5.8409 272.95 45.059z" fill="#136b39" stroke="#136b39"/>
<path d="m819.91-88.982-382.13 50.9 120.1 30.874z" fill="#237940" stroke="#237940"/>
</g>
</svg>
