<?xml version="1.0" encoding="UTF-8" standalone="no"?>
<svg
   xmlns:dc="http://purl.org/dc/elements/1.1/"
   xmlns:cc="http://creativecommons.org/ns#"
   xmlns:rdf="http://www.w3.org/1999/02/22-rdf-syntax-ns#"
   xmlns:svg="http://www.w3.org/2000/svg"
   xmlns="http://www.w3.org/2000/svg"
   xmlns:xlink="http://www.w3.org/1999/xlink"
   version="1.0"
   viewBox="0 0 100 100"
   id="svg126">
  <defs
     id="defs34">
    <linearGradient
       id="a"
       x1="78.514"
       x2="145.03"
       y1="192.4"
       y2="136.59"
       gradientTransform="matrix(.75752 0 0 .75752 283.07 528.85)"
       gradientUnits="userSpaceOnUse"
       href="#id0" />
    <linearGradient
       id="b"
       x1="56.694"
       x2="62.581"
       y1="179.76"
       y2="174.88"
       gradientTransform="matrix(.47256 0 0 .47256 -30.052 -675.07)"
       gradientUnits="userSpaceOnUse"
       href="#id0" />
    <linearGradient
       id="c"
       x1="39.639"
       x2="63.7"
       y1="183.71"
       y2="163.77"
       gradientTransform="matrix(.75752 0 0 .75752 283.07 528.85)"
       gradientUnits="userSpaceOnUse"
       href="#id0" />
    <linearGradient
       id="d"
       x1="50.182"
       x2="168.52"
       y1="149.84"
       y2="50.538"
       gradientUnits="userSpaceOnUse">
      <stop
         stop-color="#E77817"
         offset="0"
         id="stop5" />
      <stop
         stop-color="#E77817"
         offset=".27059"
         id="stop7" />
      <stop
         stop-color="#FFF500"
         offset=".34902"
         id="stop9" />
      <stop
         stop-color="#EB8A1B"
         offset=".41176"
         id="stop11" />
      <stop
         stop-color="#F8C200"
         offset=".63137"
         id="stop13" />
      <stop
         stop-color="#FFF500"
         offset=".6902"
         id="stop15" />
      <stop
         stop-color="#E77817"
         offset=".76863"
         id="stop17" />
      <stop
         stop-color="#E77817"
         offset="1"
         id="stop19" />
    </linearGradient>
    <style
       type="text/css"
       id="style22">.str0 {stroke:#28166F;stroke-width:0.0762}
    .str1 {stroke:white;stroke-width:0.0762}
    .fil5 {fill:#28166F}
    .fil2 {fill:#C2C1C1}
    .fil0 {fill:white}
    .fil4 {fill:#4D3E87}
    .fil3 {fill:#E77817;fill-rule:nonzero}
    .fil6 {fill:#E9823C;fill-rule:nonzero}
    .fil1 {fill:url(#d)}
    .fil8 {fill:url(#c);fill-rule:nonzero}
    .fil7 {fill:url(#b);fill-rule:nonzero}
    .fil9 {fill:url(#a);fill-rule:nonzero}</style>
    <style
       type="text/css"
       id="style24">.str0 {stroke:#28166F;stroke-width:0.0762}
    .str1 {stroke:white;stroke-width:0.0762}
    .fil5 {fill:#28166F}
    .fil2 {fill:#C2C1C1}
    .fil0 {fill:white}
    .fil4 {fill:#4D3E87}
    .fil3 {fill:#E77817;fill-rule:nonzero}
    .fil6 {fill:#E9823C;fill-rule:nonzero}
    .fil1 {fill:url(#d)}
    .fil8 {fill:url(#c);fill-rule:nonzero}
    .fil7 {fill:url(#b);fill-rule:nonzero}
    .fil9 {fill:url(#a);fill-rule:nonzero}</style>
    <style
       type="text/css"
       id="style26">.str0 {stroke:#28166F;stroke-width:0.0762}
    .str1 {stroke:white;stroke-width:0.0762}
    .fil5 {fill:#28166F}
    .fil2 {fill:#C2C1C1}
    .fil0 {fill:white}
    .fil4 {fill:#4D3E87}
    .fil3 {fill:#E77817;fill-rule:nonzero}
    .fil6 {fill:#E9823C;fill-rule:nonzero}
    .fil1 {fill:url(#d)}
    .fil8 {fill:url(#c);fill-rule:nonzero}
    .fil7 {fill:url(#b);fill-rule:nonzero}
    .fil9 {fill:url(#a);fill-rule:nonzero}</style>
    <style
       type="text/css"
       id="style28">.str0 {stroke:#28166F;stroke-width:0.0762}
    .str1 {stroke:white;stroke-width:0.0762}
    .fil5 {fill:#28166F}
    .fil2 {fill:#C2C1C1}
    .fil0 {fill:white}
    .fil4 {fill:#4D3E87}
    .fil3 {fill:#E77817;fill-rule:nonzero}
    .fil6 {fill:#E9823C;fill-rule:nonzero}
    .fil1 {fill:url(#d)}
    .fil8 {fill:url(#c);fill-rule:nonzero}
    .fil7 {fill:url(#b);fill-rule:nonzero}
    .fil9 {fill:url(#a);fill-rule:nonzero}</style>
    <style
       type="text/css"
       id="style30">.str0 {stroke:#28166F;stroke-width:0.0762}
    .str1 {stroke:white;stroke-width:0.0762}
    .fil5 {fill:#28166F}
    .fil2 {fill:#C2C1C1}
    .fil0 {fill:white}
    .fil4 {fill:#4D3E87}
    .fil3 {fill:#E77817;fill-rule:nonzero}
    .fil6 {fill:#E9823C;fill-rule:nonzero}
    .fil1 {fill:url(#d)}
    .fil8 {fill:url(#c);fill-rule:nonzero}
    .fil7 {fill:url(#b);fill-rule:nonzero}
    .fil9 {fill:url(#a);fill-rule:nonzero}</style>
    <style
       type="text/css"
       id="style32">.fil0 {fill:none}
    .fil2 {fill:#1F1A17}
    .fil1 {fill:#28166F}
    .fil3 {fill:white}
    .fil4 {fill:#1F1A17;fill-rule:nonzero}</style>
    <linearGradient
       xlink:href="#d"
       id="linearGradient995"
       x1="55.12088"
       y1="117.43428"
       x2="133.92696"
       y2="117.43428"
       gradientUnits="userSpaceOnUse"
       spreadMethod="reflect" />
  </defs>
  <metadata
     id="metadata36">
    <rdf:RDF>
      <cc:Work
         rdf:about="">
        <dc:format>image/svg+xml</dc:format>
        <dc:type
           rdf:resource="http://purl.org/dc/dcmitype/StillImage" />
        <dc:title></dc:title>
      </cc:Work>
    </rdf:RDF>
  </metadata>
  <g
     id="g1018" />
  <g
     id="g1377">
    <path
       style="fill:#000000;fill-opacity:1;stroke-width:1.5209105"
       d="M 49.999023,15.283203 A 36.717499,36.717499 0 0 0 13.282227,52 36.717499,36.717499 0 0 0 49.999023,88.716797 36.717499,36.717499 0 0 0 86.717774,52 36.717499,36.717499 0 0 0 49.999023,15.283203 Z m -0.205078,2.853515 A 33.415001,33.415001 0 0 1 83.208007,51.552734 33.415001,33.415001 0 0 1 49.793945,84.966797 33.415001,33.415001 0 0 1 16.377929,51.552734 33.415001,33.415001 0 0 1 49.793945,18.136718 Z"
       id="path894-7" />
    <path
       style="opacity:1"
       d="m 51.04262,52.92445 v 0"
       id="path38-3" />
    <path
       style="opacity:1;fill:#000000;fill-opacity:1"
       id="text-ck-1"
       stroke-width="13.943"
       shape-rendering="geometricPrecision"
       image-rendering="optimizeQuality"
       fill-rule="evenodd"
       fill="#f4f3d6"
       clip-rule="evenodd"
       d="m 52.45162,37.51245 c -2.2576,4.4168 -4.2499,8.8531 -8.6399,11.674 -1.86,1.1953 -3.9884,1.6912 -5.3827,1.6891 -1.7127,-0.0029 -1.9772,-1.9225 -0.43858,-2.4517 -0.38632,1.9242 3.7489,0.14962 4.3142,-0.14536 2.6372,-1.3765 4.4526,-2.9924 5.175,-5.8242 1.1357,-4.0044 0.32222,-8.5796 1.8951,-12.407 0.49037,-1.2903 1.4839,-2.3578 2.3637,-3.4154 0.01317,-0.01287 0.01966,-0.02595 0.02634,-0.03872 0.002,-0.0039 0.0059,-0.0088 0.01101,-0.01464 -2.9175,-0.68396 -3.8829,-1.1814 -6.0431,-1.1814 -7.5796,0 -12.219,5.2988 -12.219,13.081 0,5.1456 2.0973,9.7345 7.8288,7.0765 1.8555,-0.8605 3.1061,-2.4636 3.1061,-4.4956 0,-1.8691 -1.1357,-4.1062 -3.3464,-4.1062 -0.42963,0 -0.71276,0.13966 -1.0188,0.39758 -0.16238,0.13678 -0.41419,0.14242 -0.41419,-0.11349 0,-0.19484 0.20095,-0.42623 0.57982,-0.7386 1.3675,-1.1276 3.1158,-1.7141 4.7131,-0.76268 0.73233,0.43618 1.1477,1.1579 1.3335,1.9981 0.58709,2.6551 -0.68363,5.6527 -2.8134,7.6608 -1.8792,1.772 -4.4359,2.7426 -6.857,2.4702 -3.4058,-0.38317 -6.1895,-3.4936 -6.1895,-9.3377 0,-8.2568 7.1126,-14.115 14.932,-15.483 3.2627,-0.57069 6.1417,0.62239 9.3305,0.62239 0.56311,0 1.0684,-0.08118 1.4992,-0.25953 0.16614,-0.05425 0.46621,-0.20328 0.63353,-0.06083 0.16593,0.14129 0.01297,0.40815 -0.08894,0.53422 -0.80962,1.001 -2.2081,1.6151 -3.3063,2.2597 -0.80903,0.97883 -1.3697,2.0713 -1.6783,3.2801 -0.71004,3.2942 -1.0675,6.7309 -1.3733,10.078 0.90878,-1.7795 1.9145,-3.5257 3.0373,-5.1879 2.0347,-3.0172 4.8609,-6.6511 8.9745,-6.6511 0.80642,0 1.8553,0.25314 1.8553,1.2161 0,0.95079 -1.2868,2.336 -2.0652,2.9315 -0.09749,0.07459 -0.24382,0.15226 -0.35849,0.05061 -0.12744,-0.11349 0.29763,-0.57577 0.29763,-0.80228 0,-0.67268 -0.60082,-1.009 -1.8024,-1.009 -2.2318,0 -3.8046,1.3922 -6.1686,4.6394 1.3587,3.4779 2.398,7.1756 4.1401,10.499 0.54631,1.0343 1.3645,2.4816 2.7398,2.4816 0.44224,0 0.94965,-0.31714 1.2806,-0.51776 -0.61303,1.3131 -2.4296,1.8816 -3.2193,1.9171 -1.2141,0.05464 -1.9407,-0.29732 -2.5442,-1.3388 -1.8339,-3.1658 -2.6239,-6.8752 -4.1002,-10.214 z"
       class="fil2" />
    <path
       style="opacity:1"
       d="m 72.59462,70.55826 c -0.71719,0.83623 -1.2702,1.3964 -2.4805,2.1094 -1.5714,0.47895 -2.6047,0.09787 -3.8379,-0.23047 -0.829,0.88077 -1.5996,0.8301 -2.8145,1.0449 -2.7245,0.53298 -5.5401,2.1456 -7.8145,3.209 3.9848,-1.0105 5.4793,0.40636 9.3477,0.28125 2.6879,4.42e-4 4.7198,-1.1481 6.1719,-3.375 0.51732,-0.96034 1.0193,-1.8691 1.4277,-3.0391 z"
       id="path957" />
    <path
       style="opacity:1"
       d="m 27.40362,70.55826 c 0.40846,1.1699 0.91237,2.0787 1.4297,3.0391 1.4521,2.2269 3.4821,3.3754 6.1699,3.375 3.8683,0.12511 5.3629,-1.2917 9.3477,-0.28125 -2.2744,-1.0634 -5.0899,-2.676 -7.8145,-3.209 -1.2149,-0.21483 -1.9854,-0.16415 -2.8145,-1.0449 -1.2332,0.32836 -2.2665,0.70942 -3.8379,0.23047 -1.2103,-0.71294 -1.7633,-1.2731 -2.4805,-2.1094 z"
       id="path955" />
    <path
       style="opacity:1"
       d="m 67.79062,51.95626 c -1.2864,1.3787 -3.0055,1.1017 -4.6973,0.94531 -3.2896,-0.30406 -5.594,2.0334 -6.8535,3.4375 0.61912,1.1437 0.98846,2.0514 1.2695,3.2793 1.8397,-4.2082 5.3326,-5.4548 9.459,-5.1016 0.25144,-0.80676 0.70752,-1.9701 0.82227,-2.5605 z"
       id="path953" />
    <path
       style="opacity:1"
       d="m 32.07562,51.82345 c 0.11475,0.59045 0.70363,1.8866 0.95508,2.6934 4.1264,-0.35319 7.6193,0.89337 9.459,5.1016 0.28108,-1.2279 0.65041,-2.1356 1.2695,-3.2793 -1.2596,-1.4041 -3.5619,-3.7416 -6.8516,-3.4375 -1.6917,0.15637 -3.5456,0.30059 -4.832,-1.0781 z"
       id="petals-dark-1" />
    <path
       style="opacity:1"
       d="m 50.00462,48.85045 c -4.42e-4,4.33e-4 -9.83e-4,9.83e-4 -9.83e-4,0.002 -9.83e-4,0.002 -0.002,0.0039 -0.0039,0.0069 -9.83e-4,-0.002 -0.002,-0.0039 -0.0039,-0.0069 -2.85e-4,-8.75e-4 -8.75e-4,-0.002 -9.83e-4,-0.002 -8.74e-4,-8.74e-4 -9.83e-4,-0.0029 -0.002,-0.002 -8.75e-4,-9.83e-4 -9.83e-4,7.27e-4 -0.002,0.002 -4.32e-4,4.33e-4 -9.83e-4,9.83e-4 -9.83e-4,0.002 -0.98712,1.7514 -1.9674,3.2206 -3.1017,4.7696 -3.9937,5.4531 -5.0971,10.6 -2.2878,16.985 -2.261952,-1.904761 -2.927674,-7.524265 -2.5983,-9.60595 -2.1028,-4.0293 -4.1951,-5.4885 -8.8624,-5.2604 -3.2983,0.16113 -4.7812,0.61797 -9.0606,-1.034 1.3424,1.9236 3.3915,3.3454 5.8739,4.5393 3.6354,3.2831 2.5497,5.2055 2.6718,7.0444 -0.13706,1.5053 -0.02634,2.6196 0.18761,3.6544 0.08914,0.43031 0.19563,0.7758 0.48572,1.1251 0.47475,0.57147 0.91773,0.99785 1.4629,1.1264 0.57952,0.07882 1.1428,0.12548 1.7094,0.17815 2.9421,0.27328 5.9693,2.0306 8.4791,3.4676 1.5097,0.76467 3.1674,1.2331 5.0416,1.2685 h 0.004 c 0.002,0 0.0039,0 0.0049,-1.48e-4 0.002,1.48e-4 0.0039,1.48e-4 0.0049,1.48e-4 h 0.004 c 1.8743,-0.03538 3.5319,-0.50383 5.0416,-1.2685 2.5097,-1.437 5.537,-3.1943 8.4791,-3.4676 0.56658,-0.05268 1.1299,-0.09941 1.7094,-0.17815 0.54513,-0.12855 0.98813,-0.55493 1.4629,-1.1264 0.2901,-0.34927 0.39667,-0.69477 0.48572,-1.1251 0.21396,-1.0349 0.32462,-2.1491 0.1876,-3.6544 0.12212,-1.8388 -0.96357,-3.7613 2.6718,-7.0444 2.4824,-1.1938 4.5315,-2.6156 5.8739,-4.5393 -4.2794,1.652 -5.7623,1.1952 -9.0606,1.034 -4.6672,-0.22809 -6.7596,1.231 -8.8624,5.2604 0.436615,2.961187 -0.618138,8.038773 -2.5983,9.60595 2.8093,-6.3856 1.706,-11.532 -2.2878,-16.985 -1.1343,-1.549 -2.1146,-3.0183 -3.1017,-4.7696 -2.85e-4,-8.75e-4 -8.65e-4,-0.002 -9.83e-4,-0.002 -8.65e-4,-8.74e-4 -9.83e-4,-0.0029 -0.002,-0.002 -8.74e-4,-9.83e-4 -9.82e-4,7.27e-4 -0.002,0.002 z"
       id="petals-light-5" />
  </g>
</svg>
